<svg width="180" height="44" viewBox="0 0 180 44" fill="none" xmlns="http://www.w3.org/2000/svg">
    <!-- Futuristic 'B' shape with gradient -->
    <path d="M12 6H24C28.4183 6 32 9.58172 32 14C32 16.688 30.6725 19.0645 28.634 20.5C30.6725 21.9355 32 24.312 32 27C32 31.4183 28.4183 35 24 35H12V6Z" fill="url(#logo-grad-1)"/>
    <path d="M17 11H23.5C25.433 11 27 12.567 27 14.5C27 16.433 25.433 18 23.5 18H17V11Z" fill="#111827"/>
    <path d="M17 23H23.5C25.433 23 27 24.567 27 26.5C27 28.433 25.433 30 23.5 30H17V23Z" fill="#111827"/>
    
    <!-- White core accent inside the 'B' for premium contrast -->
    <circle cx="20" cy="14.5" r="1.5" fill="#06b6d4" />
    <circle cx="20" cy="26.5" r="1.5" fill="#7c3aed" />

    <!-- Futuristic 'X' intersecting in cyan -->
    <path d="M38 6L48 35" stroke="url(#logo-grad-2)" stroke-width="4.5" stroke-linecap="round"/>
    <path d="M48 6L38 35" stroke="url(#logo-grad-2)" stroke-width="4.5" stroke-linecap="round"/>
    
    <!-- BRANDLOOM text -->
    <text x="60" y="27" font-family="'Outfit', sans-serif" font-weight="800" font-size="16" fill="#ffffff" letter-spacing="1.2">BRANDLOOM</text>
    <text x="162" y="27" font-family="'Outfit', sans-serif" font-weight="900" font-size="16" fill="url(#logo-grad-2)">X</text>
    
    <!-- Color Gradients matching the website theme -->
    <defs>
        <linearGradient id="logo-grad-1" x1="12" y1="6" x2="32" y2="35" gradientUnits="userSpaceOnUse">
            <stop offset="0%" stop-color="#7c3aed" />
            <stop offset="100%" stop-color="#4f46e5" />
        </linearGradient>
        <linearGradient id="logo-grad-2" x1="38" y1="6" x2="48" y2="35" gradientUnits="userSpaceOnUse">
            <stop offset="0%" stop-color="#06b6d4" />
            <stop offset="100%" stop-color="#0891b2" />
        </linearGradient>
    </defs>
</svg>
